# xmcd
#
# Track frame offsets:
#	150
#	14500
#	30480
#	48379
#	65770
#	82868
#
# Disc length: 1354 seconds
#
# Revision: 0
# Processed by: cddbd v1.5.2PL0 Copyright (c) Steve Scherf et al.
# Submitted via: audiograbber 1.83.01
#
DISCID=43054806
DTITLE=Dave Hunt - Shade of Grey
DYEAR=2017
DGENRE=Blues
TTITLE0=Shade of Grey
TTITLE1=Bad Vibe Calling
TTITLE2=That's Life (Skype Song)
TTITLE3=Honeysuckle Rose
TTITLE4=It's Not Me, It's You
TTITLE5=Swamp Cougar
EXTD=
EXTT0=
EXTT1=
EXTT2=
EXTT3=
EXTT4=
EXTT5=
PLAYORDER=
